<?xml version="1.0" encoding="UTF-8"?>
<!DOCTYPE svg PUBLIC "-//W3C//DTD SVG 1.1//EN" "http://www.w3.org/Graphics/SVG/1.1/DTD/svg11.dtd">
<!-- Creator: CorelDRAW X7 -->
<svg xmlns="http://www.w3.org/2000/svg" xml:space="preserve" width="100%" height="100%" version="1.1" style="shape-rendering:geometricPrecision; text-rendering:geometricPrecision; image-rendering:optimizeQuality; fill-rule:evenodd; clip-rule:evenodd"
viewBox="0 0 623 703"
 xmlns:xlink="http://www.w3.org/1999/xlink">
 <defs>
  <style type="text/css">
   <![CDATA[
    .str0 {stroke:#0C005C;stroke-width:16.933}
    .fil2 {fill:none}
    .fil1 {fill:#0C005C}
    .fil3 {fill:#0C005C;fill-rule:nonzero}
    .fil0 {fill:url(#id1)}
   ]]>
  </style>
   <clipPath id="id0">
    <path d="M16 659c10,0 12,-2 22,-8l123 -72c12,-7 23,-14 35,-21l369 -215c34,-20 -8,-36 -35,-51l-171 -99 -129 -73c-44,-24 -96,-56 -142,-81 -13,-7 -62,-39 -75,-39 -15,0 -13,14 -13,29l3 600c0,15 -2,30 13,30z"/>
   </clipPath>
  <linearGradient id="id1" gradientUnits="userSpaceOnUse" x1="176.073" y1="629.266" x2="401.829" y2="30.142">
   <stop offset="0" style="stop-opacity:1; stop-color:yellow"/>
   <stop offset="0.478431" style="stop-opacity:1; stop-color:#F6CB00"/>
   <stop offset="1" style="stop-opacity:1; stop-color:#ED9600"/>
  </linearGradient>
 </defs>
 <g id="Camada_x0020_1">
  <metadata id="CorelCorpID_0Corel-Layer"/>
  <path class="fil0" d="M16 659c10,0 12,-2 22,-8l123 -72c12,-7 23,-14 35,-21l369 -215c34,-20 -8,-36 -35,-51l-171 -99 -129 -73c-44,-24 -96,-56 -142,-81 -13,-7 -62,-39 -75,-39 -15,0 -13,14 -13,29l3 600c0,15 -2,30 13,30z"/>
  <g style="clip-path:url(#id0)">
   <g id="_1802367598416">
    <g>
     <path id="1" class="fil1 str0" d="M347 548c1,1 15,13 18,15 1,1 3,2 4,4 1,0 2,1 2,1 1,1 2,2 3,1l7 -9c2,-3 4,-6 7,-9 2,-3 4,-6 6,-9 1,-1 4,-5 8,-9l0 -13c-8,10 -17,22 -19,24 -2,3 -10,14 -11,14 -2,1 -23,-19 -25,-19l0 9zm61 22l0 6 8 0 0 -60 -7 0 0 54 -1 0z"/>
     <path class="fil1 str0" d="M338 518l33 28 5 -6c-1,-1 -20,-17 -23,-20 -5,-4 -12,-10 -17,-14 -1,-1 -5,-4 -6,-4l0 74 8 0 0 -58z"/>
     <path class="fil1 str0" d="M439 502l-63 0c3,3 6,5 9,8l63 0c-1,-1 -1,-1 -2,-2 -1,0 -4,-3 -7,-6z"/>
    </g>
    <polygon class="fil1" points="476,234 476,501 416,501 416,234 "/>
   </g>
  </g>
  <path class="fil2" d="M16 659c10,0 12,-2 22,-8l123 -72c12,-7 23,-14 35,-21l369 -215c34,-20 -8,-36 -35,-51l-171 -99 -129 -73c-44,-24 -96,-56 -142,-81 -13,-7 -62,-39 -75,-39 -15,0 -13,14 -13,29l3 600c0,15 -2,30 13,30z"/>
  <polygon class="fil1" points="256,339 119,258 119,501 59,501 59,153 301,296 "/>
  <polygon class="fil1" points="197,153 527,153 550,166 623,208 293,208 266,192 "/>
  <path class="fil1" d="M257 375l-93 -54c-4,-3 -11,-7 -14,-8l0 70 120 74 117 -115 0 -89 -130 122z"/>
  <polygon class="fil1" points="476,227 476,352 416,352 416,227 "/>
  <polygon class="fil3" points="83,646 74,651 77,682 51,665 43,670 62,703 70,698 60,681 78,693 87,688 85,667 94,683 102,679 "/>
  <path id="1" class="fil3" d="M80 636l5 4 13 -14 -6 -5 -12 15zm18 1l-8 4 20 33 8 -5 -20 -32z"/>
  <path id="2" class="fil3" d="M120 624l-15 8 20 33 14 -8c11,-7 14,-18 8,-27 -6,-10 -16,-13 -27,-6zm-2 11l6 -4c6,-3 11,-2 15,4 3,5 1,11 -4,14l-7 4 -10 -18z"/>
  <polygon id="3" class="fil3" points="151,605 143,610 162,643 170,638 "/>
  <path id="4" class="fil3" d="M204 618l8 -5 -33 -24 -9 5 5 41 9 -5 -1 -6 16 -10 5 4zm-22 -2l-2 -16 12 9 -10 7z"/>
  <polygon id="5" class="fil3" points="210,570 229,603 254,588 250,581 233,591 229,585 244,577 239,570 225,579 222,573 239,563 235,555 "/>
  <path id="6" class="fil3" d="M298 562l9 -5 -34 -25 -9 6 6 41 8 -5 -1 -7 16 -9 5 4zm-22 -3l-2 -15 13 9 -11 6z"/>
  <path id="7" class="fil3" d="M301 515c-7,4 -10,12 -7,18 4,7 14,4 20,2 3,-1 6,-2 8,0 0,2 0,4 -4,6 -6,4 -10,-1 -10,-1l-8 5c3,5 12,9 22,3 8,-4 11,-11 7,-18 -4,-7 -12,-4 -18,-3 -6,2 -8,3 -9,1 -1,-2 1,-5 3,-6 4,-2 7,-1 8,1l8 -5c-3,-5 -11,-8 -20,-3z"/>
  <path id="8" class="fil3" d="M333 496c-7,4 -11,12 -7,18 4,7 14,4 20,2 3,-1 6,-2 7,0 1,2 1,4 -3,6 -6,4 -10,-1 -10,-1l-8 5c3,5 12,9 22,3 8,-4 11,-11 7,-18 -4,-7 -12,-4 -18,-3 -6,2 -8,3 -9,1 -1,-2 1,-5 3,-6 4,-2 7,-1 8,1l8 -5c-3,-5 -11,-8 -20,-3z"/>
  <polygon id="9" class="fil3" points="353,485 373,517 398,503 393,495 376,505 373,500 387,491 383,484 369,493 365,487 383,477 378,470 "/>
  <path id="10" class="fil3" d="M397 458c-8,4 -11,12 -8,18 5,8 14,4 20,3 3,-2 7,-2 8,0 1,1 0,3 -3,5 -7,4 -10,-1 -10,-1l-8 5c3,5 11,10 21,3 8,-4 11,-11 8,-17 -5,-8 -13,-5 -19,-3 -5,1 -8,2 -9,0 -1,-2 1,-5 4,-6 3,-2 6,-1 7,1l8 -5c-3,-5 -11,-8 -19,-3z"/>
  <path id="11" class="fil3" d="M429 439c-8,4 -11,12 -8,18 5,7 14,4 20,2 3,-1 7,-2 8,1 1,1 0,3 -3,5 -7,4 -11,-1 -11,-1l-7 5c3,5 11,9 21,3 8,-4 11,-11 7,-18 -4,-7 -12,-4 -18,-2 -5,1 -8,2 -9,0 -1,-2 1,-5 4,-6 3,-2 6,-1 7,1l8 -5c-3,-5 -11,-8 -19,-3z"/>
  <path id="12" class="fil3" d="M463 418c-9,6 -12,18 -7,27 6,10 18,13 27,7 9,-5 12,-17 7,-27 -6,-9 -18,-12 -27,-7zm4 8c6,-3 12,-2 16,4 3,5 1,12 -4,15 -6,3 -13,1 -16,-4 -3,-5 -1,-12 4,-15z"/>
  <path id="13" class="fil3" d="M501 396l-16 10 20 33 8 -5 -5 -8 6 -4 9 6 10 -6 -12 -6c2,-4 2,-9 -1,-14 -4,-7 -12,-10 -19,-6zm3 8c3,-1 7,0 8,2 2,3 1,7 -2,8l-7 4 -5 -10 6 -4z"/>
  <polygon id="14" class="fil3" points="527,381 519,386 539,418 547,414 "/>
  <path id="15" class="fil3" d="M580 394l9 -5 -34 -25 -8 5 5 41 8 -5 -1 -6 16 -9 5 4zm-22 -3l-2 -15 13 9 -11 6z"/>
 </g>
</svg>
